<svg xmlns="http://www.w3.org/2000/svg" xmlns:xlink="http://www.w3.org/1999/xlink" width="1000" zoomAndPan="magnify" viewBox="0 0 750 749.999995" height="1000" preserveAspectRatio="xMidYMid meet" version="1.2"><defs><clipPath id="bda1703813"><path d="M 375 0 C 167.894531 0 0 167.894531 0 375 C 0 582.105469 167.894531 750 375 750 C 582.105469 750 750 582.105469 750 375 C 750 167.894531 582.105469 0 375 0 Z M 375 0 "/></clipPath><clipPath id="c6ffb4efe7"><path d="M 36.8125 36.8125 L 713.1875 36.8125 L 713.1875 713.1875 L 36.8125 713.1875 Z M 36.8125 36.8125 "/></clipPath><clipPath id="2b1852c25d"><path d="M 375 36.8125 C 188.222656 36.8125 36.8125 188.222656 36.8125 375 C 36.8125 561.777344 188.222656 713.1875 375 713.1875 C 561.777344 713.1875 713.1875 561.777344 713.1875 375 C 713.1875 188.222656 561.777344 36.8125 375 36.8125 Z M 375 36.8125 "/></clipPath><clipPath id="977af29c31"><path d="M 84.160156 177 L 334 177 L 334 508.5 L 84.160156 508.5 Z M 84.160156 177 "/></clipPath><clipPath id="6540ea7841"><path d="M 416 177 L 665.828125 177 L 665.828125 508.5 L 416 508.5 Z M 416 177 "/></clipPath><clipPath id="041f05a738"><path d="M 91 13.5 L 659 13.5 L 659 350 L 91 350 Z M 91 13.5 "/></clipPath></defs><g id="65075a0f65"><g clip-rule="nonzero" clip-path="url(#bda1703813)"><rect x="0" width="750" y="0" height="749.999995" style="fill:#1e3254;fill-opacity:1;stroke:none;"/></g><g clip-rule="nonzero" clip-path="url(#c6ffb4efe7)"><g clip-rule="nonzero" clip-path="url(#2b1852c25d)"><path style=" stroke:none;fill-rule:nonzero;fill:#bcd3ff;fill-opacity:1;" d="M 36.8125 36.8125 L 713.1875 36.8125 L 713.1875 713.1875 L 36.8125 713.1875 Z M 36.8125 36.8125 "/></g></g><g clip-rule="nonzero" clip-path="url(#977af29c31)"><path style=" stroke:none;fill-rule:nonzero;fill:#1e3254;fill-opacity:1;" d="M 241.96875 479.675781 C 278.039062 490.117188 320.085938 467.734375 332.820312 431.300781 C 332.164062 431.425781 331.480469 431.496094 330.824219 431.597656 C 317.949219 433.621094 304.613281 432.4375 292.285156 428.085938 C 306.851562 425.324219 321.175781 414.542969 329.390625 401.785156 C 324.359375 402.636719 317.972656 401.46875 315.679688 396.765625 C 327.800781 384.347656 336.660156 366.183594 331.878906 349.242188 C 329.015625 339.121094 324.425781 330.214844 319.042969 321.683594 C 318.984375 322.195312 318.949219 322.703125 318.871094 323.214844 C 312.734375 366.648438 243.21875 393.949219 211.351562 364.136719 C 226.578125 368.078125 244.503906 357.023438 244.503906 357.023438 C 244.253906 356.957031 230.53125 352.0625 224.484375 348.539062 C 212.421875 341.519531 204.84375 329.816406 202.480469 314.230469 C 201.789062 309.695312 201.175781 296.574219 203.910156 289.429688 C 202.105469 290.042969 198.425781 290.453125 190.019531 296.722656 C 191.753906 266.105469 226.28125 254.222656 252.058594 254.222656 C 257.523438 254.222656 262.035156 254.585938 265.953125 255.234375 C 255.214844 244.089844 243.9375 233.5 232.164062 223.535156 C 228.644531 220.550781 225.089844 217.617188 221.476562 214.742188 C 218.136719 212.085938 214.714844 209.585938 211.25 207.210938 C 200.945312 200.15625 190.144531 194.261719 179.113281 188.828125 C 170.941406 184.808594 162.636719 181.046875 154.332031 177.277344 C 118.082031 210.710938 93.632812 257.777344 87.269531 307.628906 C 92.226562 300.652344 102.507812 298.460938 109.730469 302.847656 C 89.339844 340.699219 80.703125 385.199219 85.40625 428.257812 C 91.542969 419.15625 98.550781 410.703125 106.335938 403.082031 C 104.6875 425.996094 107.96875 449.773438 118.921875 469.78125 C 129.863281 489.785156 149.128906 505.542969 171.160156 508.632812 C 159.617188 500.429688 151.96875 486.640625 150.949219 472.1875 C 182.804688 497.160156 225.609375 506.519531 264.511719 497 C 255.25 494.445312 247.015625 488.117188 241.96875 479.675781 "/></g><g clip-rule="nonzero" clip-path="url(#6540ea7841)"><path style=" stroke:none;fill-rule:nonzero;fill:#1e3254;fill-opacity:1;" d="M 640.242188 302.859375 C 647.480469 298.472656 657.761719 300.652344 662.726562 307.640625 C 656.351562 257.789062 631.902344 210.722656 595.652344 177.289062 C 587.347656 181.058594 579.042969 184.820312 570.875 188.839844 C 559.84375 194.273438 549.039062 200.167969 538.734375 207.222656 C 535.269531 209.585938 531.851562 212.085938 528.511719 214.742188 C 524.898438 217.617188 521.339844 220.558594 517.820312 223.535156 C 506.050781 233.511719 494.769531 244.101562 484.03125 255.246094 C 487.953125 254.597656 492.460938 254.234375 497.925781 254.234375 C 523.703125 254.234375 558.230469 266.117188 559.96875 296.734375 C 551.5625 290.460938 547.878906 290.054688 546.074219 289.441406 C 548.8125 296.574219 548.199219 309.695312 547.503906 314.242188 C 545.140625 329.828125 537.554688 341.53125 525.5 348.550781 C 519.457031 352.070312 505.730469 356.96875 505.480469 357.035156 C 505.480469 357.035156 523.410156 368.089844 538.632812 364.136719 C 506.765625 393.960938 437.25 366.660156 431.113281 323.226562 C 431.035156 322.714844 431 322.203125 430.945312 321.683594 C 425.558594 330.214844 420.96875 339.132812 418.105469 349.253906 C 413.335938 366.183594 422.183594 384.359375 434.308594 396.765625 C 432.023438 401.480469 425.628906 402.636719 420.605469 401.796875 C 428.808594 414.542969 443.132812 425.335938 457.699219 428.097656 C 445.371094 432.449219 432.035156 433.628906 419.164062 431.609375 C 418.503906 431.507812 417.824219 431.425781 417.164062 431.300781 C 429.898438 467.746094 471.945312 490.128906 508.015625 479.6875 C 502.972656 488.117188 494.734375 494.445312 485.476562 497.011719 C 524.375 506.519531 567.183594 497.171875 599.039062 472.199219 C 598.015625 486.640625 590.371094 500.429688 578.828125 508.644531 C 600.855469 505.542969 620.121094 489.796875 631.074219 469.792969 C 642.015625 449.785156 645.296875 426.007812 643.664062 403.082031 C 651.433594 410.714844 658.453125 419.167969 664.578125 428.257812 C 669.28125 385.210938 660.648438 340.699219 640.242188 302.859375 "/></g><path style=" stroke:none;fill-rule:nonzero;fill:#1e3254;fill-opacity:1;" d="M 374.992188 293.167969 C 374.992188 293.167969 374.992188 293.179688 374.992188 293.179688 C 400.828125 286.519531 440.65625 202.507812 444.578125 187.945312 C 448.496094 173.378906 480.429688 122.175781 487.53125 112.28125 C 462.085938 105.601562 410.425781 100.160156 374.992188 100.160156 C 339.558594 100.160156 287.902344 105.589844 262.453125 112.269531 C 269.554688 122.164062 301.488281 173.367188 305.410156 187.933594 C 309.316406 202.496094 349.160156 286.507812 374.992188 293.167969 "/><g clip-rule="nonzero" clip-path="url(#041f05a738)"><path style=" stroke:none;fill-rule:nonzero;fill:#1e3254;fill-opacity:1;" d="M 160.707031 123.289062 C 155.425781 126.324219 146.402344 132.480469 131.886719 135.785156 C 140.097656 139.433594 219.179688 172.21875 242.277344 187.601562 C 245.230469 189.578125 248.320312 192.078125 251.492188 195 C 273.109375 214.902344 298.546875 254.394531 311.179688 279.113281 C 320.984375 298.289062 341.171875 322.648438 356.976562 337.15625 C 364.519531 344.074219 371.074219 348.777344 374.992188 349.5625 C 378.914062 348.777344 385.46875 344.085938 393.011719 337.15625 C 408.8125 322.648438 429 298.289062 438.804688 279.113281 C 451.4375 254.402344 476.863281 214.914062 498.496094 195.011719 C 501.664062 192.089844 504.753906 189.589844 507.707031 187.613281 C 530.804688 172.230469 609.886719 139.433594 618.101562 135.796875 C 603.582031 132.480469 594.5625 126.335938 589.277344 123.300781 C 611.589844 118.132812 640.8125 98.945312 658.035156 23.644531 C 636.890625 47.933594 602.253906 75.0625 596.957031 75.0625 C 605.183594 58.058594 607.851562 32.4375 608.707031 13.523438 C 598.140625 39.628906 564.332031 76.28125 542.484375 90.855469 C 520.625 105.429688 485 149.964844 473.648438 172.230469 C 470.457031 178.480469 464.457031 191.101562 457.789062 205.167969 C 446.859375 228.183594 434.136719 255.050781 429.011719 264.070312 C 423.105469 274.476562 407.621094 296.210938 394.113281 310.671875 C 386.363281 318.96875 379.277344 324.863281 374.992188 324.863281 C 370.722656 324.863281 363.621094 318.957031 355.871094 310.671875 C 342.363281 296.210938 326.878906 274.46875 320.972656 264.0625 C 315.847656 255.050781 303.125 228.183594 292.195312 205.15625 C 285.527344 191.101562 279.527344 178.46875 276.335938 172.21875 C 264.988281 149.953125 229.359375 105.417969 207.511719 90.84375 C 185.65625 76.269531 151.84375 39.628906 141.28125 13.511719 C 142.132812 32.425781 144.800781 58.046875 153.015625 75.050781 C 147.734375 75.050781 113.09375 47.921875 91.953125 23.632812 C 109.175781 98.945312 138.394531 118.132812 160.707031 123.289062 "/></g><path style=" stroke:none;fill-rule:nonzero;fill:#1e3254;fill-opacity:1;" d="M 252.261719 279.203125 C 240.742188 276.476562 230.234375 277.046875 224.371094 281.535156 C 206.753906 318.582031 236.996094 340.449219 252.535156 345.414062 C 266.019531 349.71875 292.402344 349.1875 302.089844 319.320312 C 299.171875 311.183594 294.003906 304.0625 287.652344 298.109375 C 287.753906 299.007812 287.8125 299.914062 287.8125 300.835938 C 287.8125 314.503906 277.097656 325.589844 263.875 325.589844 C 250.660156 325.589844 239.949219 314.503906 239.949219 300.835938 C 239.949219 291.53125 244.925781 283.441406 252.261719 279.203125 "/><path style=" stroke:none;fill-rule:nonzero;fill:#1e3254;fill-opacity:1;" d="M 486.113281 325.589844 C 472.886719 325.589844 462.175781 314.511719 462.175781 300.847656 C 462.175781 299.925781 462.230469 299.015625 462.332031 298.121094 C 455.984375 304.074219 450.8125 311.195312 447.894531 319.332031 C 457.585938 349.1875 483.964844 349.730469 497.449219 345.425781 C 512.992188 340.449219 543.234375 318.59375 525.613281 281.542969 C 519.75 277.058594 509.253906 276.476562 497.722656 279.214844 C 505.074219 283.441406 510.039062 291.542969 510.039062 300.847656 C 510.039062 314.511719 499.324219 325.589844 486.113281 325.589844 "/><path style=" stroke:none;fill-rule:nonzero;fill:#1e3254;fill-opacity:1;" d="M 400.703125 401.59375 C 397.757812 394.503906 380.867188 378.714844 374.992188 376.894531 L 374.992188 376.882812 C 369.121094 378.714844 352.226562 394.503906 349.285156 401.582031 C 358.871094 422.769531 365.4375 463.996094 374.992188 468.65625 C 374.992188 468.667969 374.992188 468.667969 374.992188 468.667969 C 384.546875 464.007812 391.101562 422.78125 400.703125 401.59375 "/><g style="fill:#1e3254;fill-opacity:1;"><g transform="translate(198.835291, 678.527738)"><path style="stroke:none" d="M 115.390625 -47.09375 C 115.390625 -36.851562 113.285156 -28.21875 109.078125 -21.1875 C 104.867188 -14.164062 98.972656 -8.878906 91.390625 -5.328125 C 83.816406 -1.773438 74.90625 0 64.65625 0 C 57.125 0 50.265625 -1.316406 44.078125 -3.953125 C 37.890625 -6.585938 32.453125 -10.28125 27.765625 -15.03125 C 23.085938 -19.789062 19.175781 -25.351562 16.03125 -31.71875 C 12.882812 -38.09375 10.503906 -45.007812 8.890625 -52.46875 C 7.285156 -59.9375 6.519531 -67.695312 6.59375 -75.75 C 6.59375 -85.707031 7.191406 -95.238281 8.390625 -104.34375 C 9.597656 -113.457031 11.535156 -121.820312 14.203125 -129.4375 C 16.878906 -137.050781 20.414062 -143.675781 24.8125 -149.3125 C 29.207031 -154.945312 34.550781 -159.316406 40.84375 -162.421875 C 47.132812 -165.535156 54.523438 -167.09375 63.015625 -167.09375 C 69.234375 -167.09375 75.195312 -165.972656 80.90625 -163.734375 C 86.613281 -161.503906 91.738281 -158.414062 96.28125 -154.46875 C 100.820312 -150.519531 104.445312 -145.984375 107.15625 -140.859375 C 109.863281 -135.734375 111.289062 -130.28125 111.4375 -124.5 C 111.507812 -120.394531 110.757812 -116.421875 109.1875 -112.578125 C 107.613281 -108.742188 105.378906 -105.523438 102.484375 -102.921875 C 99.585938 -100.328125 96.203125 -98.8125 92.328125 -98.375 C 89.398438 -98.070312 86.398438 -98.304688 83.328125 -99.078125 C 80.253906 -99.847656 77.378906 -101.054688 74.703125 -102.703125 C 72.035156 -104.347656 69.878906 -106.34375 68.234375 -108.6875 C 66.585938 -111.03125 65.765625 -113.628906 65.765625 -116.484375 C 65.472656 -118.460938 65.050781 -119.722656 64.5 -120.265625 C 63.945312 -120.816406 63.359375 -120.890625 62.734375 -120.484375 C 62.117188 -120.085938 61.585938 -119.445312 61.140625 -118.5625 C 60.703125 -117.6875 60.484375 -116.773438 60.484375 -115.828125 L 58.515625 -70.8125 C 58.515625 -62.976562 59.082031 -57.523438 60.21875 -54.453125 C 61.351562 -51.378906 63.492188 -50.5 66.640625 -51.8125 C 69.785156 -53.132812 74.359375 -56.46875 80.359375 -61.8125 C 87.097656 -67.738281 93.097656 -71.101562 98.359375 -71.90625 C 103.628906 -72.707031 107.785156 -71.019531 110.828125 -66.84375 C 113.867188 -62.675781 115.390625 -56.09375 115.390625 -47.09375 Z M 115.390625 -47.09375 "/></g></g><g style="fill:#1e3254;fill-opacity:1;"><g transform="translate(330.554706, 678.527738)"><path style="stroke:none" d="M 41.71875 0.765625 C 33.8125 1.640625 27.054688 -0.847656 21.453125 -6.703125 C 15.859375 -12.554688 11.78125 -21.554688 9.21875 -33.703125 C 6.65625 -45.847656 5.957031 -60.992188 7.125 -79.140625 C 8.300781 -97.296875 11.671875 -118.234375 17.234375 -141.953125 C 17.890625 -145.242188 19.222656 -147.914062 21.234375 -149.96875 C 23.253906 -152.019531 25.707031 -153.59375 28.59375 -154.6875 C 31.488281 -155.78125 34.617188 -156.53125 37.984375 -156.9375 C 41.347656 -157.34375 44.675781 -157.546875 47.96875 -157.546875 C 52.726562 -157.546875 56.296875 -156.71875 58.671875 -155.0625 C 61.054688 -153.414062 62.722656 -150.835938 63.671875 -147.328125 C 64.628906 -143.816406 65.195312 -139.28125 65.375 -133.71875 C 65.5625 -128.15625 65.800781 -121.421875 66.09375 -113.515625 C 66.3125 -105.390625 66.457031 -97.082031 66.53125 -88.59375 C 66.601562 -80.101562 66.472656 -71.796875 66.140625 -63.671875 C 65.816406 -55.546875 65.160156 -47.859375 64.171875 -40.609375 C 63.179688 -33.367188 61.769531 -26.835938 59.9375 -21.015625 C 58.113281 -15.203125 55.71875 -10.410156 52.75 -6.640625 C 49.789062 -2.867188 46.113281 -0.398438 41.71875 0.765625 Z M 41.71875 0.765625 "/></g></g><g style="fill:#1e3254;fill-opacity:1;"><g transform="translate(413.420083, 678.527738)"><path style="stroke:none" d="M 129.65625 -75.421875 C 129.65625 -67.953125 129.414062 -60.578125 128.9375 -53.296875 C 128.46875 -46.015625 127.628906 -39.191406 126.421875 -32.828125 C 125.210938 -26.460938 123.507812 -20.84375 121.3125 -15.96875 C 119.113281 -11.101562 116.273438 -7.28125 112.796875 -4.5 C 109.328125 -1.71875 105.101562 -0.328125 100.125 -0.328125 C 95.070312 -0.328125 90.660156 -1.535156 86.890625 -3.953125 C 83.117188 -6.367188 79.804688 -9.71875 76.953125 -14 C 74.097656 -18.28125 71.484375 -23.3125 69.109375 -29.09375 C 66.734375 -34.875 64.410156 -41.148438 62.140625 -47.921875 C 59.867188 -54.691406 57.453125 -61.738281 54.890625 -69.0625 C 56.066406 -64.226562 56.960938 -59.082031 57.578125 -53.625 C 58.203125 -48.175781 58.515625 -42.722656 58.515625 -37.265625 C 58.515625 -31.816406 58.070312 -26.675781 57.1875 -21.84375 C 56.3125 -17.007812 54.921875 -12.78125 53.015625 -9.15625 C 51.117188 -5.539062 48.613281 -2.800781 45.5 -0.9375 C 42.394531 0.925781 38.609375 1.601562 34.140625 1.09375 C 28.066406 0.507812 23.195312 -1.476562 19.53125 -4.875 C 15.875 -8.28125 13.113281 -12.765625 11.25 -18.328125 C 9.382812 -23.890625 8.140625 -30.203125 7.515625 -37.265625 C 6.898438 -44.328125 6.59375 -51.8125 6.59375 -59.71875 C 6.59375 -94.78125 8.019531 -118.347656 10.875 -130.421875 C 12.113281 -135.253906 14.210938 -139.738281 17.171875 -143.875 C 20.140625 -148.007812 23.707031 -151.335938 27.875 -153.859375 C 32.050781 -156.390625 36.554688 -157.65625 41.390625 -157.65625 C 45.265625 -157.65625 48.847656 -156.570312 52.140625 -154.40625 C 55.441406 -152.25 58.445312 -149.285156 61.15625 -145.515625 C 63.863281 -141.742188 66.332031 -137.476562 68.5625 -132.71875 C 70.789062 -127.96875 72.800781 -122.957031 74.59375 -117.6875 C 76.382812 -112.414062 77.992188 -107.160156 79.421875 -101.921875 C 80.859375 -96.691406 82.085938 -91.8125 83.109375 -87.28125 C 81.492188 -98.40625 80.082031 -108.320312 78.875 -117.03125 C 77.664062 -125.738281 77.0625 -132.765625 77.0625 -138.109375 C 77.0625 -142.867188 77.976562 -147.09375 79.8125 -150.78125 C 81.644531 -154.476562 84.28125 -157.367188 87.71875 -159.453125 C 91.15625 -161.546875 95.289062 -162.59375 100.125 -162.59375 C 113.59375 -162.59375 121.972656 -155.128906 125.265625 -140.203125 C 125.773438 -137.785156 126.25 -134.523438 126.6875 -130.421875 C 127.125 -126.328125 127.523438 -121.804688 127.890625 -116.859375 C 128.265625 -111.921875 128.578125 -106.890625 128.828125 -101.765625 C 129.085938 -96.640625 129.289062 -91.769531 129.4375 -87.15625 C 129.582031 -82.550781 129.65625 -78.640625 129.65625 -75.421875 Z M 129.65625 -75.421875 "/></g></g></g></svg>